<svg xmlns="http://www.w3.org/2000/svg" viewBox="0 0 760 520" role="img"><title>Immunometabolism · 면역대사 — Metabolic state ↔ immune response</title><defs><marker id="a" markerWidth="8" markerHeight="8" refX="6" refY="4" orient="auto"><path d="M0 0L8 4L0 8" fill="none" stroke="#52647A"/></marker></defs><rect width="760" height="520" fill="#F6F3EC"/><g font-family="Arial,Malgun Gothic,sans-serif"><ellipse cx="430" cy="260" rx="145" ry="125" fill="#DDEAF5" stroke="#6886A5" stroke-width="3"/><ellipse cx="470" cy="245" rx="55" ry="47" fill="#D7CFE7" stroke="#817196" stroke-width="2"/><g transform="translate(370 285)"><ellipse rx="58" ry="30" fill="#F1B3A1" stroke="#B56452" stroke-width="2"/><path d="M-40 0q10-35 20 0t20 0t20 0t20 0" fill="none" stroke="#9B5748" stroke-width="3"/></g><path d="M440 375q-160 50-160-95" fill="none" stroke="#D9876F" stroke-width="3" marker-end="url(#a)"/><path d="M550 190Q690 160 650 305" fill="none" stroke="#52647A" stroke-width="2" marker-end="url(#a)"/><g fill="#D9876F"><circle cx="630" cy="320" r="7"/><circle cx="652" cy="335" r="7"/><circle cx="674" cy="350" r="7"/></g><text x="75" y="90" font-size="16" fill="#17243A">Metabolic state</text><text x="75" y="113" font-size="13" fill="#52647A">대사 상태</text><text x="570" y="420" font-size="16" fill="#17243A">Immune response</text><text x="570" y="443" font-size="13" fill="#52647A">면역 반응</text><text x="310" y="455" font-size="16" fill="#17243A">Immune cell</text><text x="310" y="478" font-size="13" fill="#52647A">면역세포</text></g></svg>