<svg xmlns="http://www.w3.org/2000/svg" viewBox="0 0 760 520" role="img"><title>Cellular Aging · 세포 노화 — Fibroblasts ↔ extracellular matrix</title><defs><marker id="a" markerWidth="8" markerHeight="8" refX="6" refY="4" orient="auto"><path d="M0 0L8 4L0 8" fill="none" stroke="#52647A"/></marker></defs><rect width="760" height="520" fill="#F6F3EC"/><g font-family="Arial,Malgun Gothic,sans-serif"><g stroke="#9DAEBF" fill="none" stroke-width="6"><path d="M60 150Q320 70 700 200"/><path d="M60 197Q320 120 700 242"/><path d="M60 244Q320 170 700 284"/><path d="M60 291Q320 220 700 326"/><path d="M60 338Q320 270 700 368"/></g><path d="M220 250q150-140 290 0q-150 110-290 0Z" fill="#DDEAF5" stroke="#6886A5" stroke-width="3"/><ellipse cx="365" cy="245" rx="42" ry="26" fill="#D7CFE7"/><path d="M375 160V100" fill="none" stroke="#52647A" stroke-width="2" marker-end="url(#a)"/><path d="M465 300V360" fill="none" stroke="#52647A" stroke-width="2" marker-end="url(#a)"/><text x="80" y="70" font-size="16" fill="#17243A">Extracellular matrix</text><text x="80" y="93" font-size="13" fill="#52647A">세포외기질</text><text x="80" y="440" font-size="16" fill="#17243A">Fibroblast</text><text x="80" y="463" font-size="13" fill="#52647A">섬유아세포</text><text x="495" y="440" font-size="16" fill="#17243A">Matrix turnover</text><text x="495" y="463" font-size="13" fill="#52647A">기질의 생성과 분해</text></g></svg>